<svg id="Layer_1" data-name="Layer 1" xmlns="http://www.w3.org/2000/svg" viewBox="0 0 1547 357.21"><defs><style>.cls-1{font-size:324px;font-family:Dosis-Regular, Dosis;}.cls-1,.cls-4{fill:#4d9078;}.cls-2{letter-spacing:0em;}.cls-3{fill:#fff;}</style></defs><title>logo</title><text class="cls-1" transform="translate(0 280.42)">De <tspan class="cls-2" x="394.63" y="0">M</tspan><tspan x="609.44" y="0">e</tspan></text><rect class="cls-3" x="779.72" y="93.13" width="62.6" height="187.43"/><path class="cls-4" d="M1024.83,478.57V657H971.22V478.57h53.61m9-9H962.22V666h71.61V469.57Z" transform="translate(-187 -380.93)"/><ellipse class="cls-3" cx="811.02" cy="88.63" rx="31.3" ry="51.07"/><path class="cls-4" d="M998,423c8.64,0,14.83,7.61,17.75,12.15,5.76,8.93,9.06,21.47,9.06,34.42s-3.3,25.48-9.06,34.41c-2.92,4.54-9.11,12.15-17.75,12.15S983.2,508.52,980.28,504c-5.76-8.93-9.06-21.47-9.06-34.41s3.3-25.49,9.06-34.42C983.2,430.61,989.39,423,998,423m0-9c-19.77,0-35.8,24.88-35.8,55.57s16,55.56,35.8,55.56,35.81-24.88,35.81-55.56S1017.8,414,998,414Z" transform="translate(-187 -380.93)"/><rect class="cls-3" x="804.13" y="93.13" width="14.6" height="17.61"/><path class="cls-4" d="M1001.23,478.57v8.6h-5.6v-8.6h5.6m9-9h-23.6v26.6h23.6v-26.6Z" transform="translate(-187 -380.93)"/><text class="cls-1" transform="translate(857.06 280.42)">dpaal</text></svg>